%TF.GenerationSoftware,KiCad,Pcbnew,(6.0.0-0)*%
%TF.CreationDate,2023-07-31T21:51:41+02:00*%
%TF.ProjectId,P1_Gateway,50315f47-6174-4657-9761-792e6b696361,1*%
%TF.SameCoordinates,Original*%
%TF.FileFunction,AssemblyDrawing,Top*%
%FSLAX46Y46*%
G04 Gerber Fmt 4.6, Leading zero omitted, Abs format (unit mm)*
G04 Created by KiCad (PCBNEW (6.0.0-0)) date 2023-07-31 21:51:41*
%MOMM*%
%LPD*%
G01*
G04 APERTURE LIST*
%ADD10C,0.150000*%
%ADD11C,0.100000*%
G04 APERTURE END LIST*
D10*
%TO.C,J1*%
X179384285Y-48092380D02*
X179193809Y-48092380D01*
X179098571Y-48140000D01*
X179050952Y-48187619D01*
X178955714Y-48330476D01*
X178908095Y-48520952D01*
X178908095Y-48901904D01*
X178955714Y-48997142D01*
X179003333Y-49044761D01*
X179098571Y-49092380D01*
X179289047Y-49092380D01*
X179384285Y-49044761D01*
X179431904Y-48997142D01*
X179479523Y-48901904D01*
X179479523Y-48663809D01*
X179431904Y-48568571D01*
X179384285Y-48520952D01*
X179289047Y-48473333D01*
X179098571Y-48473333D01*
X179003333Y-48520952D01*
X178955714Y-48568571D01*
X178908095Y-48663809D01*
X179908095Y-49092380D02*
X179908095Y-48092380D01*
X180289047Y-48092380D01*
X180384285Y-48140000D01*
X180431904Y-48187619D01*
X180479523Y-48282857D01*
X180479523Y-48425714D01*
X180431904Y-48520952D01*
X180384285Y-48568571D01*
X180289047Y-48616190D01*
X179908095Y-48616190D01*
X181336666Y-48092380D02*
X181146190Y-48092380D01*
X181050952Y-48140000D01*
X181003333Y-48187619D01*
X180908095Y-48330476D01*
X180860476Y-48520952D01*
X180860476Y-48901904D01*
X180908095Y-48997142D01*
X180955714Y-49044761D01*
X181050952Y-49092380D01*
X181241428Y-49092380D01*
X181336666Y-49044761D01*
X181384285Y-48997142D01*
X181431904Y-48901904D01*
X181431904Y-48663809D01*
X181384285Y-48568571D01*
X181336666Y-48520952D01*
X181241428Y-48473333D01*
X181050952Y-48473333D01*
X180955714Y-48520952D01*
X180908095Y-48568571D01*
X180860476Y-48663809D01*
X182431904Y-48997142D02*
X182384285Y-49044761D01*
X182241428Y-49092380D01*
X182146190Y-49092380D01*
X182003333Y-49044761D01*
X181908095Y-48949523D01*
X181860476Y-48854285D01*
X181812857Y-48663809D01*
X181812857Y-48520952D01*
X181860476Y-48330476D01*
X181908095Y-48235238D01*
X182003333Y-48140000D01*
X182146190Y-48092380D01*
X182241428Y-48092380D01*
X182384285Y-48140000D01*
X182431904Y-48187619D01*
D11*
%TO.C,D1*%
X191920190Y-54126000D02*
X189587810Y-54126000D01*
X189588524Y-54125445D02*
G75*
G03*
X191920190Y-54126000I1165476J-1500555D01*
G01*
X192254000Y-55626000D02*
G75*
G03*
X192254000Y-55626000I-1500000J0D01*
G01*
%TO.C,R1*%
X183918000Y-84925000D02*
X180318000Y-84925000D01*
X180318000Y-84925000D02*
X180318000Y-86525000D01*
X185928000Y-85725000D02*
X183918000Y-85725000D01*
X183918000Y-86525000D02*
X183918000Y-84925000D01*
X180318000Y-86525000D02*
X183918000Y-86525000D01*
X178308000Y-85725000D02*
X180318000Y-85725000D01*
%TO.C,R2*%
X191224000Y-66316000D02*
X192824000Y-66316000D01*
X192824000Y-66316000D02*
X192824000Y-62716000D01*
X192024000Y-68326000D02*
X192024000Y-66316000D01*
X192824000Y-62716000D02*
X191224000Y-62716000D01*
X192024000Y-60706000D02*
X192024000Y-62716000D01*
X191224000Y-62716000D02*
X191224000Y-66316000D01*
%TO.C,R4*%
X194350000Y-55950000D02*
X192750000Y-55950000D01*
X192750000Y-59550000D02*
X194350000Y-59550000D01*
X193550000Y-53940000D02*
X193550000Y-55950000D01*
X194350000Y-59550000D02*
X194350000Y-55950000D01*
X193550000Y-61560000D02*
X193550000Y-59550000D01*
X192750000Y-55950000D02*
X192750000Y-59550000D01*
%TO.C,R3*%
X190650000Y-66290000D02*
X190650000Y-62690000D01*
X189050000Y-62690000D02*
X189050000Y-66290000D01*
X189850000Y-68300000D02*
X189850000Y-66290000D01*
X189850000Y-60680000D02*
X189850000Y-62690000D01*
X189050000Y-66290000D02*
X190650000Y-66290000D01*
X190650000Y-62690000D02*
X189050000Y-62690000D01*
%TO.C,J1*%
X174440000Y-50170000D02*
X187640000Y-50170000D01*
X187640000Y-66420000D02*
X187140000Y-66920000D01*
X187140000Y-66920000D02*
X187640000Y-67420000D01*
X174440000Y-68170000D02*
X174440000Y-50170000D01*
X187640000Y-67420000D02*
X187640000Y-68170000D01*
X187640000Y-68170000D02*
X174440000Y-68170000D01*
X187640000Y-50170000D02*
X187640000Y-66420000D01*
%TO.C,U1*%
X173350000Y-52750000D02*
G75*
G03*
X171350000Y-54750000I-1J-1999999D01*
G01*
X196950000Y-54770000D02*
G75*
G03*
X194970000Y-52750000I-2000000J20000D01*
G01*
X173890000Y-80050000D02*
X173890000Y-86950000D01*
X172350000Y-60960000D02*
X171350000Y-59960000D01*
X171350000Y-54750000D02*
X171350000Y-59960000D01*
X171350000Y-80050000D02*
X173890000Y-80050000D01*
X173890000Y-86950000D02*
X196950000Y-86950000D01*
X196950000Y-86950000D02*
X196950000Y-54750000D01*
X171350000Y-61960000D02*
X172350000Y-60960000D01*
X171350000Y-61960000D02*
X171350000Y-80050000D01*
X194950000Y-52750000D02*
X173350000Y-52750000D01*
%TO.C,Q1*%
X188269800Y-85793800D02*
X192019800Y-85793800D01*
X192060903Y-85786347D02*
G75*
G03*
X190159800Y-81713800I-1901103J1592547D01*
G01*
X190089800Y-81713800D02*
G75*
G03*
X188196982Y-85796185I0J-2480000D01*
G01*
D10*
%TO.C,TP1*%
X194449000Y-85619400D02*
X194449000Y-85119400D01*
X195949000Y-85619400D02*
X194449000Y-85619400D01*
X194449000Y-85119400D02*
X195949000Y-85119400D01*
X195949000Y-85119400D02*
X195949000Y-85619400D01*
X196449000Y-85369400D02*
G75*
G03*
X196449000Y-85369400I-1250000J0D01*
G01*
%TD*%
M02*
