M48
; DRILL file {KiCad (6.0.0-0)} date Montag, 31. Juli 2023 um 21:51:35
; FORMAT={-:-/ absolute / inch / decimal}
; #@! TF.CreationDate,2023-07-31T21:51:35+02:00
; #@! TF.GenerationSoftware,Kicad,Pcbnew,(6.0.0-0)
; #@! TF.FileFunction,Plated,1,2,PTH
FMAT,2
INCH
; #@! TA.AperFunction,Plated,PTH,ComponentDrill
T1C0.0276
; #@! TA.AperFunction,Plated,PTH,ComponentDrill
T2C0.0299
; #@! TA.AperFunction,Plated,PTH,ComponentDrill
T3C0.0315
; #@! TA.AperFunction,Plated,PTH,ComponentDrill
T4C0.0354
; #@! TA.AperFunction,Plated,PTH,ComponentDrill
T5C0.0394
%
G90
G05
T1
X7.02Y-3.375
X7.32Y-3.375
X7.4744Y-2.389
X7.4744Y-2.689
X7.56Y-2.39
X7.56Y-2.69
X7.6201Y-2.1236
X7.6201Y-2.4236
T2
X7.0024Y-2.5354
X7.0524Y-2.6354
X7.1024Y-2.5354
X7.1524Y-2.6354
X7.2024Y-2.5354
X7.2524Y-2.6354
T3
X6.8848Y-3.264
X6.9848Y-3.264
X7.3866Y-3.3147
X7.4866Y-3.3147
X7.5866Y-3.3147
X7.6193Y-3.0992
X7.6197Y-2.9024
T4
X7.51Y-2.14
X7.51Y-2.24
T5
X6.8Y-2.4
X6.8Y-2.5
X6.8Y-2.6
X6.8Y-2.7
X6.8Y-2.8
X6.8Y-2.9
X6.8Y-3.0
X6.8Y-3.1
X7.685Y-3.361
X7.7Y-2.4
X7.7Y-2.5
X7.7Y-2.6
X7.7Y-2.7
X7.7Y-2.8
X7.7Y-2.9
X7.7Y-3.0
X7.7Y-3.1
T0
M30
