%TF.GenerationSoftware,KiCad,Pcbnew,(6.0.0-0)*%
%TF.CreationDate,2023-07-31T21:51:41+02:00*%
%TF.ProjectId,P1_Gateway,50315f47-6174-4657-9761-792e6b696361,1*%
%TF.SameCoordinates,Original*%
%TF.FileFunction,Legend,Bot*%
%TF.FilePolarity,Positive*%
%FSLAX46Y46*%
G04 Gerber Fmt 4.6, Leading zero omitted, Abs format (unit mm)*
G04 Created by KiCad (PCBNEW (6.0.0-0)) date 2023-07-31 21:51:41*
%MOMM*%
%LPD*%
G01*
G04 APERTURE LIST*
%ADD10C,0.150000*%
G04 APERTURE END LIST*
D10*
X188562857Y-79012380D02*
X188562857Y-78012380D01*
X188181904Y-78012380D01*
X188086666Y-78060000D01*
X188039047Y-78107619D01*
X187991428Y-78202857D01*
X187991428Y-78345714D01*
X188039047Y-78440952D01*
X188086666Y-78488571D01*
X188181904Y-78536190D01*
X188562857Y-78536190D01*
X187039047Y-79012380D02*
X187610476Y-79012380D01*
X187324761Y-79012380D02*
X187324761Y-78012380D01*
X187420000Y-78155238D01*
X187515238Y-78250476D01*
X187610476Y-78298095D01*
X185324761Y-78060000D02*
X185420000Y-78012380D01*
X185562857Y-78012380D01*
X185705714Y-78060000D01*
X185800952Y-78155238D01*
X185848571Y-78250476D01*
X185896190Y-78440952D01*
X185896190Y-78583809D01*
X185848571Y-78774285D01*
X185800952Y-78869523D01*
X185705714Y-78964761D01*
X185562857Y-79012380D01*
X185467619Y-79012380D01*
X185324761Y-78964761D01*
X185277142Y-78917142D01*
X185277142Y-78583809D01*
X185467619Y-78583809D01*
X184420000Y-79012380D02*
X184420000Y-78488571D01*
X184467619Y-78393333D01*
X184562857Y-78345714D01*
X184753333Y-78345714D01*
X184848571Y-78393333D01*
X184420000Y-78964761D02*
X184515238Y-79012380D01*
X184753333Y-79012380D01*
X184848571Y-78964761D01*
X184896190Y-78869523D01*
X184896190Y-78774285D01*
X184848571Y-78679047D01*
X184753333Y-78631428D01*
X184515238Y-78631428D01*
X184420000Y-78583809D01*
X184086666Y-78345714D02*
X183705714Y-78345714D01*
X183943809Y-78012380D02*
X183943809Y-78869523D01*
X183896190Y-78964761D01*
X183800952Y-79012380D01*
X183705714Y-79012380D01*
X182991428Y-78964761D02*
X183086666Y-79012380D01*
X183277142Y-79012380D01*
X183372380Y-78964761D01*
X183420000Y-78869523D01*
X183420000Y-78488571D01*
X183372380Y-78393333D01*
X183277142Y-78345714D01*
X183086666Y-78345714D01*
X182991428Y-78393333D01*
X182943809Y-78488571D01*
X182943809Y-78583809D01*
X183420000Y-78679047D01*
X182610476Y-78345714D02*
X182420000Y-79012380D01*
X182229523Y-78536190D01*
X182039047Y-79012380D01*
X181848571Y-78345714D01*
X181039047Y-79012380D02*
X181039047Y-78488571D01*
X181086666Y-78393333D01*
X181181904Y-78345714D01*
X181372380Y-78345714D01*
X181467619Y-78393333D01*
X181039047Y-78964761D02*
X181134285Y-79012380D01*
X181372380Y-79012380D01*
X181467619Y-78964761D01*
X181515238Y-78869523D01*
X181515238Y-78774285D01*
X181467619Y-78679047D01*
X181372380Y-78631428D01*
X181134285Y-78631428D01*
X181039047Y-78583809D01*
X180658095Y-78345714D02*
X180420000Y-79012380D01*
X180181904Y-78345714D02*
X180420000Y-79012380D01*
X180515238Y-79250476D01*
X180562857Y-79298095D01*
X180658095Y-79345714D01*
X183189523Y-82052380D02*
X182856190Y-83052380D01*
X182522857Y-82052380D01*
X182237142Y-82147619D02*
X182189523Y-82100000D01*
X182094285Y-82052380D01*
X181856190Y-82052380D01*
X181760952Y-82100000D01*
X181713333Y-82147619D01*
X181665714Y-82242857D01*
X181665714Y-82338095D01*
X181713333Y-82480952D01*
X182284761Y-83052380D01*
X181665714Y-83052380D01*
X188657142Y-81132857D02*
X188657142Y-79932857D01*
X188657142Y-80504285D02*
X187971428Y-80504285D01*
X187971428Y-81132857D02*
X187971428Y-79932857D01*
X186885714Y-81132857D02*
X186885714Y-80504285D01*
X186942857Y-80390000D01*
X187057142Y-80332857D01*
X187285714Y-80332857D01*
X187400000Y-80390000D01*
X186885714Y-81075714D02*
X187000000Y-81132857D01*
X187285714Y-81132857D01*
X187400000Y-81075714D01*
X187457142Y-80961428D01*
X187457142Y-80847142D01*
X187400000Y-80732857D01*
X187285714Y-80675714D01*
X187000000Y-80675714D01*
X186885714Y-80618571D01*
X186371428Y-81075714D02*
X186200000Y-81132857D01*
X185914285Y-81132857D01*
X185800000Y-81075714D01*
X185742857Y-81018571D01*
X185685714Y-80904285D01*
X185685714Y-80790000D01*
X185742857Y-80675714D01*
X185800000Y-80618571D01*
X185914285Y-80561428D01*
X186142857Y-80504285D01*
X186257142Y-80447142D01*
X186314285Y-80390000D01*
X186371428Y-80275714D01*
X186371428Y-80161428D01*
X186314285Y-80047142D01*
X186257142Y-79990000D01*
X186142857Y-79932857D01*
X185857142Y-79932857D01*
X185685714Y-79990000D01*
X184657142Y-81075714D02*
X184771428Y-81132857D01*
X185000000Y-81132857D01*
X185114285Y-81075714D01*
X185171428Y-81018571D01*
X185228571Y-80904285D01*
X185228571Y-80561428D01*
X185171428Y-80447142D01*
X185114285Y-80390000D01*
X185000000Y-80332857D01*
X184771428Y-80332857D01*
X184657142Y-80390000D01*
X184142857Y-81132857D02*
X184142857Y-79932857D01*
X183628571Y-81132857D02*
X183628571Y-80504285D01*
X183685714Y-80390000D01*
X183800000Y-80332857D01*
X183971428Y-80332857D01*
X184085714Y-80390000D01*
X184142857Y-80447142D01*
X182200000Y-80047142D02*
X182142857Y-79990000D01*
X182028571Y-79932857D01*
X181742857Y-79932857D01*
X181628571Y-79990000D01*
X181571428Y-80047142D01*
X181514285Y-80161428D01*
X181514285Y-80275714D01*
X181571428Y-80447142D01*
X182257142Y-81132857D01*
X181514285Y-81132857D01*
X180771428Y-79932857D02*
X180657142Y-79932857D01*
X180542857Y-79990000D01*
X180485714Y-80047142D01*
X180428571Y-80161428D01*
X180371428Y-80390000D01*
X180371428Y-80675714D01*
X180428571Y-80904285D01*
X180485714Y-81018571D01*
X180542857Y-81075714D01*
X180657142Y-81132857D01*
X180771428Y-81132857D01*
X180885714Y-81075714D01*
X180942857Y-81018571D01*
X181000000Y-80904285D01*
X181057142Y-80675714D01*
X181057142Y-80390000D01*
X181000000Y-80161428D01*
X180942857Y-80047142D01*
X180885714Y-79990000D01*
X180771428Y-79932857D01*
X179914285Y-80047142D02*
X179857142Y-79990000D01*
X179742857Y-79932857D01*
X179457142Y-79932857D01*
X179342857Y-79990000D01*
X179285714Y-80047142D01*
X179228571Y-80161428D01*
X179228571Y-80275714D01*
X179285714Y-80447142D01*
X179971428Y-81132857D01*
X179228571Y-81132857D01*
X178828571Y-79932857D02*
X178085714Y-79932857D01*
X178485714Y-80390000D01*
X178314285Y-80390000D01*
X178200000Y-80447142D01*
X178142857Y-80504285D01*
X178085714Y-80618571D01*
X178085714Y-80904285D01*
X178142857Y-81018571D01*
X178200000Y-81075714D01*
X178314285Y-81132857D01*
X178657142Y-81132857D01*
X178771428Y-81075714D01*
X178828571Y-81018571D01*
M02*
