%TF.GenerationSoftware,KiCad,Pcbnew,(6.0.0-0)*%
%TF.CreationDate,2023-07-31T21:51:41+02:00*%
%TF.ProjectId,P1_Gateway,50315f47-6174-4657-9761-792e6b696361,1*%
%TF.SameCoordinates,Original*%
%TF.FileFunction,Soldermask,Top*%
%TF.FilePolarity,Negative*%
%FSLAX46Y46*%
G04 Gerber Fmt 4.6, Leading zero omitted, Abs format (unit mm)*
G04 Created by KiCad (PCBNEW (6.0.0-0)) date 2023-07-31 21:51:41*
%MOMM*%
%LPD*%
G01*
G04 APERTURE LIST*
%ADD10R,1.600000X1.600000*%
%ADD11C,1.600000*%
%ADD12R,1.800000X1.800000*%
%ADD13C,1.800000*%
%ADD14C,1.400000*%
%ADD15O,1.400000X1.400000*%
%ADD16C,3.250000*%
%ADD17R,1.520000X1.520000*%
%ADD18C,1.520000*%
%ADD19O,2.000000X1.600000*%
%ADD20R,2.000000X2.000000*%
%ADD21R,1.500000X1.500000*%
%ADD22C,1.500000*%
%ADD23C,2.000000*%
G04 APERTURE END LIST*
D10*
%TO.C,C1*%
X193540000Y-73720000D03*
D11*
X193530000Y-78720000D03*
%TD*%
D12*
%TO.C,D1*%
X190754000Y-54356000D03*
D13*
X190754000Y-56896000D03*
%TD*%
D14*
%TO.C,R1*%
X178308000Y-85725000D03*
D15*
X185928000Y-85725000D03*
%TD*%
D14*
%TO.C,R2*%
X192024000Y-68326000D03*
D15*
X192024000Y-60706000D03*
%TD*%
D14*
%TO.C,R4*%
X193550000Y-53940000D03*
D15*
X193550000Y-61560000D03*
%TD*%
D14*
%TO.C,R3*%
X189850000Y-60680000D03*
D15*
X189850000Y-68300000D03*
%TD*%
D16*
%TO.C,J1*%
X186120000Y-58050000D03*
X175960000Y-58050000D03*
D17*
X184210000Y-66940000D03*
D18*
X182940000Y-64400000D03*
X181670000Y-66940000D03*
X180400000Y-64400000D03*
X179130000Y-66940000D03*
X177860000Y-64400000D03*
%TD*%
D14*
%TO.C,JP1*%
X174873600Y-82905600D03*
X177413600Y-82905600D03*
%TD*%
D19*
%TO.C,U1*%
X195580000Y-60960000D03*
X195580000Y-63500000D03*
X195580000Y-66040000D03*
X195580000Y-68580000D03*
X195580000Y-71120000D03*
X195580000Y-73660000D03*
X195580000Y-76200000D03*
X195580000Y-78740000D03*
X172720000Y-78740000D03*
X172720000Y-76200000D03*
X172720000Y-73660000D03*
X172720000Y-71120000D03*
X172720000Y-68580000D03*
X172720000Y-66040000D03*
X172720000Y-63500000D03*
D20*
X172720000Y-60960000D03*
%TD*%
D21*
%TO.C,Q1*%
X187619800Y-84193800D03*
D22*
X190159800Y-84193800D03*
X192699800Y-84193800D03*
%TD*%
D23*
%TO.C,TP1*%
X195199000Y-85369400D03*
%TD*%
M02*
