%TF.GenerationSoftware,KiCad,Pcbnew,(6.0.0-0)*%
%TF.CreationDate,2023-07-31T21:51:40+02:00*%
%TF.ProjectId,P1_Gateway,50315f47-6174-4657-9761-792e6b696361,1*%
%TF.SameCoordinates,Original*%
%TF.FileFunction,Copper,L2,Bot*%
%TF.FilePolarity,Positive*%
%FSLAX46Y46*%
G04 Gerber Fmt 4.6, Leading zero omitted, Abs format (unit mm)*
G04 Created by KiCad (PCBNEW (6.0.0-0)) date 2023-07-31 21:51:40*
%MOMM*%
%LPD*%
G01*
G04 APERTURE LIST*
%TA.AperFunction,ComponentPad*%
%ADD10R,1.600000X1.600000*%
%TD*%
%TA.AperFunction,ComponentPad*%
%ADD11C,1.600000*%
%TD*%
%TA.AperFunction,ComponentPad*%
%ADD12R,1.800000X1.800000*%
%TD*%
%TA.AperFunction,ComponentPad*%
%ADD13C,1.800000*%
%TD*%
%TA.AperFunction,ComponentPad*%
%ADD14C,1.400000*%
%TD*%
%TA.AperFunction,ComponentPad*%
%ADD15O,1.400000X1.400000*%
%TD*%
%TA.AperFunction,ComponentPad*%
%ADD16R,1.520000X1.520000*%
%TD*%
%TA.AperFunction,ComponentPad*%
%ADD17C,1.520000*%
%TD*%
%TA.AperFunction,ComponentPad*%
%ADD18O,2.000000X1.600000*%
%TD*%
%TA.AperFunction,ComponentPad*%
%ADD19R,2.000000X2.000000*%
%TD*%
%TA.AperFunction,ComponentPad*%
%ADD20R,1.500000X1.500000*%
%TD*%
%TA.AperFunction,ComponentPad*%
%ADD21C,1.500000*%
%TD*%
%TA.AperFunction,ComponentPad*%
%ADD22C,2.000000*%
%TD*%
%TA.AperFunction,Conductor*%
%ADD23C,0.250000*%
%TD*%
G04 APERTURE END LIST*
D10*
%TO.P,C1,1*%
%TO.N,Net-(C1-Pad1)*%
X193540000Y-73720000D03*
D11*
%TO.P,C1,2*%
%TO.N,Net-(D1-Pad1)*%
X193530000Y-78720000D03*
%TD*%
D12*
%TO.P,D1,1,K*%
%TO.N,Net-(D1-Pad1)*%
X190754000Y-54356000D03*
D13*
%TO.P,D1,2,A*%
%TO.N,Net-(D1-Pad2)*%
X190754000Y-56896000D03*
%TD*%
D14*
%TO.P,R1,1*%
%TO.N,Net-(JP1-Pad1)*%
X178308000Y-85725000D03*
D15*
%TO.P,R1,2*%
%TO.N,Net-(Q1-Pad2)*%
X185928000Y-85725000D03*
%TD*%
D14*
%TO.P,R2,1*%
%TO.N,Net-(R2-Pad1)*%
X192024000Y-68326000D03*
D15*
%TO.P,R2,2*%
%TO.N,Net-(Q1-Pad1)*%
X192024000Y-60706000D03*
%TD*%
D14*
%TO.P,R4,1*%
%TO.N,Net-(R4-Pad1)*%
X193550000Y-53940000D03*
D15*
%TO.P,R4,2*%
%TO.N,Net-(D1-Pad2)*%
X193550000Y-61560000D03*
%TD*%
D14*
%TO.P,R3,1*%
%TO.N,Net-(C1-Pad1)*%
X189850000Y-60680000D03*
D15*
%TO.P,R3,2*%
%TO.N,Net-(JP1-Pad2)*%
X189850000Y-68300000D03*
%TD*%
D16*
%TO.P,J1,1*%
%TO.N,Net-(D1-Pad1)*%
X184210000Y-66940000D03*
D17*
%TO.P,J1,2*%
%TO.N,Net-(JP1-Pad1)*%
X182940000Y-64400000D03*
%TO.P,J1,3*%
%TO.N,unconnected-(J1-Pad3)*%
X181670000Y-66940000D03*
%TO.P,J1,4*%
%TO.N,Net-(D1-Pad1)*%
X180400000Y-64400000D03*
%TO.P,J1,5*%
%TO.N,Net-(C1-Pad1)*%
X179130000Y-66940000D03*
%TO.P,J1,6*%
X177860000Y-64400000D03*
%TD*%
D14*
%TO.P,JP1,1,A*%
%TO.N,Net-(JP1-Pad1)*%
X174873600Y-82905600D03*
%TO.P,JP1,2,B*%
%TO.N,Net-(JP1-Pad2)*%
X177413600Y-82905600D03*
%TD*%
D18*
%TO.P,U1,16,TX*%
%TO.N,unconnected-(U1-Pad16)*%
X195580000Y-60960000D03*
%TO.P,U1,15,RX*%
%TO.N,Net-(Q1-Pad1)*%
X195580000Y-63500000D03*
%TO.P,U1,14,SCL/D1*%
%TO.N,unconnected-(U1-Pad14)*%
X195580000Y-66040000D03*
%TO.P,U1,13,SDA/D2*%
%TO.N,unconnected-(U1-Pad13)*%
X195580000Y-68580000D03*
%TO.P,U1,12,D3*%
%TO.N,unconnected-(U1-Pad12)*%
X195580000Y-71120000D03*
%TO.P,U1,11,D4*%
%TO.N,unconnected-(U1-Pad11)*%
X195580000Y-73660000D03*
%TO.P,U1,10,GND*%
%TO.N,Net-(D1-Pad1)*%
X195580000Y-76200000D03*
%TO.P,U1,9,5V*%
%TO.N,Net-(C1-Pad1)*%
X195580000Y-78740000D03*
%TO.P,U1,8,3V3*%
%TO.N,Net-(R2-Pad1)*%
X172720000Y-78740000D03*
%TO.P,U1,7,CS/D8*%
%TO.N,unconnected-(U1-Pad7)*%
X172720000Y-76200000D03*
%TO.P,U1,6,MOSI/D7*%
%TO.N,unconnected-(U1-Pad6)*%
X172720000Y-73660000D03*
%TO.P,U1,5,MISO/D6*%
%TO.N,Net-(R4-Pad1)*%
X172720000Y-71120000D03*
%TO.P,U1,4,SCK/D5*%
%TO.N,unconnected-(U1-Pad4)*%
X172720000Y-68580000D03*
%TO.P,U1,3,D0*%
%TO.N,unconnected-(U1-Pad3)*%
X172720000Y-66040000D03*
%TO.P,U1,2,A0*%
%TO.N,unconnected-(U1-Pad2)*%
X172720000Y-63500000D03*
D19*
%TO.P,U1,1,~{RST}*%
%TO.N,unconnected-(U1-Pad1)*%
X172720000Y-60960000D03*
%TD*%
D20*
%TO.P,Q1,1,C*%
%TO.N,Net-(Q1-Pad1)*%
X187619800Y-84193800D03*
D21*
%TO.P,Q1,2,B*%
%TO.N,Net-(Q1-Pad2)*%
X190159800Y-84193800D03*
%TO.P,Q1,3,E*%
%TO.N,Net-(D1-Pad1)*%
X192699800Y-84193800D03*
%TD*%
D22*
%TO.P,TP1,1,1*%
%TO.N,Net-(C1-Pad1)*%
X195199000Y-85369400D03*
%TD*%
D23*
%TO.N,Net-(Q1-Pad2)*%
X188830000Y-85550000D02*
X188655000Y-85725000D01*
X190159800Y-84193800D02*
X188830000Y-85523600D01*
X188830000Y-85523600D02*
X188830000Y-85550000D01*
X188655000Y-85725000D02*
X185928000Y-85725000D01*
%TO.N,Net-(C1-Pad1)*%
X177860000Y-64400000D02*
X177860000Y-65670000D01*
X187700000Y-70500000D02*
X191050000Y-70500000D01*
X193540000Y-73720000D02*
X193540000Y-76700000D01*
X193540000Y-76700000D02*
X195580000Y-78740000D01*
X177860000Y-65670000D02*
X179130000Y-66940000D01*
X189850000Y-60680000D02*
X187690000Y-62840000D01*
X187610000Y-70410000D02*
X187700000Y-70500000D01*
X182690000Y-70500000D02*
X187700000Y-70500000D01*
X187610000Y-62840000D02*
X187610000Y-70410000D01*
X191050000Y-70500000D02*
X193540000Y-72990000D01*
X179130000Y-66940000D02*
X182690000Y-70500000D01*
X193540000Y-72990000D02*
X193540000Y-73720000D01*
X187690000Y-62840000D02*
X187610000Y-62840000D01*
%TO.N,Net-(JP1-Pad1)*%
X175940000Y-85740000D02*
X175955000Y-85725000D01*
X175955000Y-85725000D02*
X178308000Y-85725000D01*
X174873600Y-84673600D02*
X175940000Y-85740000D01*
X174873600Y-82905600D02*
X174873600Y-84673600D01*
%TO.N,Net-(D1-Pad1)*%
X177630000Y-62460000D02*
X180510000Y-62460000D01*
X185860000Y-62420000D02*
X185860000Y-65140000D01*
X193530000Y-78720000D02*
X192520000Y-77710000D01*
X180400000Y-64400000D02*
X180400000Y-62570000D01*
X185820000Y-62460000D02*
X185860000Y-62420000D01*
X192710000Y-79540000D02*
X193530000Y-78720000D01*
X181740000Y-77710000D02*
X176330000Y-72300000D01*
X190754000Y-54356000D02*
X188540000Y-56570000D01*
X180510000Y-62460000D02*
X186040000Y-62460000D01*
X188540000Y-56570000D02*
X188540000Y-59960000D01*
X192699800Y-84193800D02*
X192699800Y-79579800D01*
X192520000Y-77710000D02*
X181740000Y-77710000D01*
X180400000Y-62570000D02*
X180510000Y-62460000D01*
X188540000Y-59960000D02*
X186040000Y-62460000D01*
X176330000Y-72300000D02*
X176330000Y-63820000D01*
X176330000Y-63820000D02*
X177690000Y-62460000D01*
X185860000Y-65140000D02*
X184210000Y-66790000D01*
%TD*%
M02*
